<svg width="244" xmlns="http://www.w3.org/2000/svg" viewBox="0 0 244 28" height="28">
 <metadata>
  <x:xmpmeta x:xmptk="Adobe XMP Core 5.6-c138 79.159824, 2016/09/14-01:09:01        " xmlns:x="adobe:ns:meta/">
   <rdf:RDF xmlns:rdf="http://www.w3.org/1999/02/22-rdf-syntax-ns#">
    <rdf:Description rdf:about=""/>
   </rdf:RDF>
  </x:xmpmeta>
 </metadata>
 <defs>
  <style>.cls-1 {
        fill: #bf0101;
        fill-rule: evenodd;
      }</style>
 </defs>
 <path id="Forma_1" d="m215.18 876.98h3.12a1.413 1.413 0 1 1 0 2.825h-3.112a1.413 1.413 0 1 1 -0.01 -2.82zm-10.563 0h5.28a1.413 1.413 0 1 1 0 2.825h-5.281a1.413 1.413 0 1 1 0 -2.82zm-10.563 0h5.281a1.413 1.413 0 1 1 0 2.825h-5.281a1.413 1.413 0 1 1 0 -2.82zm-10.563 0h5.281a1.413 1.413 0 1 1 0 2.825h-5.28a1.413 1.413 0 1 1 0 -2.82zm-8.394 0h3.113a1.413 1.413 0 1 1 0 2.825h-3.12a1.413 1.413 0 1 1 0 -2.82zm-2.359-8.748a4.449 4.449 0 0 1 0.884 -2.234 4.983 4.983 0 0 1 1.024 -1.011 6.109 6.109 0 0 1 3.8 -1.133h0.01l0.313 0.017a6.527 6.527 0 0 1 2.229 0.582h0.009c0.24 0.119 0.316 0.16 0.345 0.177a15.812 15.812 0 0 0 4.848 1.824 15.8 15.8 0 0 0 -3.1 -4.142c-0.024-0.024-0.085-0.086-0.267-0.282l-0.006-0.008a6.509 6.509 0 0 1 -1.182 -1.982l-0.1-0.288v-0.01a5.846 5.846 0 0 1 0.723 -5.247 4.4 4.4 0 0 1 1.275 -1.146 4.464 4.464 0 0 1 2.889 -0.569 5.378 5.378 0 0 1 2.622 1.171 6.224 6.224 0 0 1 1.2 1.293 7.112 7.112 0 0 1 0.8 1.557 5.872 5.872 0 0 1 -0.649 5.4 4.63 4.63 0 0 1 -0.614 0.668 4.505 4.505 0 0 1 -0.394 0.313l1.552 3.6 11.794 2.078 0.128 0.018a3.783 3.783 0 0 1 0.821 0.184 3.685 3.685 0 0 1 1.938 2.036 4.707 4.707 0 0 1 0.311 0.914l0.156 0.712a0.36 0.36 0 0 1 -0.086 0.322 0.365 0.365 0 0 1 -0.313 0.115l-12.846-1.61 1.886 4.536h-4.563l-2.464-5.2-3.754-0.47a4.4 4.4 0 0 1 -0.651 1.224 5.852 5.852 0 0 1 -4.742 2.155 6.1 6.1 0 0 1 -5.188 -2.842 4.551 4.551 0 0 1 -0.64 -2.73zm14.93-7.406a1.637 1.637 0 0 0 0.39 -0.372 2.818 2.818 0 0 0 0.374 -2.154 3.6 3.6 0 0 0 -1.339 -2.175 1.93 1.93 0 0 0 -1.892 -0.348 1.518 1.518 0 0 0 -0.611 0.485 2.764 2.764 0 0 0 -0.413 1.959 3.59 3.59 0 0 0 1.411 2.411 1.866 1.866 0 0 0 2.07 0.21zm-12.02 7.989a1.821 1.821 0 0 0 0.426 0.958 3.343 3.343 0 0 0 2.428 1.107 2.926 2.926 0 0 0 2.441 -0.972c0.02-0.027 0.04-0.055 0.059-0.084a1.6 1.6 0 0 0 -0.147 -1.909 3.237 3.237 0 0 0 -2.1 -1.109l-0.1-0.013a3.1 3.1 0 0 0 -2.609 0.843 1.371 1.371 0 0 0 -0.09 0.109 1.516 1.516 0 0 0 -0.32 1.08zm88.532 8.165h3.11a1.413 1.413 0 1 1 0 2.825h-3.112a1.413 1.413 0 1 1 -0.01 -2.82zm-10.563 0h5.27a1.413 1.413 0 1 1 0 2.825h-5.281a1.413 1.413 0 1 1 0 -2.82zm-10.563 0h5.281a1.413 1.413 0 1 1 0 2.825h-5.281a1.413 1.413 0 1 1 -0.01 -2.82zm-10.563 0h5.281a1.413 1.413 0 1 1 0 2.825h-5.29a1.413 1.413 0 1 1 0 -2.82zm-8.394 0h3.113a1.413 1.413 0 1 1 0 2.825h-3.13a1.413 1.413 0 1 1 0 -2.82zm89.083 0h3.1a1.413 1.413 0 1 1 0 2.825h-3.112a1.413 1.413 0 1 1 -0.01 -2.82zm-10.563 0h5.26a1.413 1.413 0 1 1 0 2.825h-5.281a1.413 1.413 0 1 1 0 -2.82zm-10.563 0h5.281a1.413 1.413 0 1 1 0 2.825h-5.281a1.413 1.413 0 1 1 -0.02 -2.82zm-10.563 0h5.281a1.413 1.413 0 1 1 0 2.825h-5.3a1.413 1.413 0 1 1 0 -2.82zm-8.394 0h3.113a1.413 1.413 0 1 1 0 2.825h-3.14a1.413 1.413 0 1 1 0 -2.82zm90.083 0h3.09a1.413 1.413 0 1 1 0 2.825h-3.112a1.413 1.413 0 1 1 -0.01 -2.82zm-10.563 0h5.25a1.413 1.413 0 1 1 0 2.825h-5.281a1.413 1.413 0 1 1 0 -2.82zm-10.563 0h5.281a1.413 1.413 0 1 1 0 2.825h-5.281a1.413 1.413 0 1 1 -0.03 -2.82zm-10.563 0h5.281a1.413 1.413 0 1 1 0 2.825h-5.31a1.413 1.413 0 1 1 0 -2.82zm-8.394 0h3.113a1.413 1.413 0 1 1 0 2.825h-3.15a1.413 1.413 0 1 1 0 -2.82zm89.083 0h3.08a1.413 1.413 0 1 1 0 2.825h-3.112a1.413 1.413 0 1 1 -0.01 -2.82zm-10.563 0h5.24a1.413 1.413 0 1 1 0 2.825h-5.281a1.413 1.413 0 1 1 0 -2.82zm-10.563 0h5.281a1.413 1.413 0 1 1 0 2.825h-5.281a1.413 1.413 0 1 1 -0.04 -2.82zm-10.563 0h5.281a1.413 1.413 0 1 1 0 2.825h-5.32a1.413 1.413 0 1 1 0 -2.82zm-8.394 0h3.113a1.413 1.413 0 1 1 0 2.825h-3.16a1.413 1.413 0 1 1 0 -2.82z" class="cls-1" transform="translate(-172.75 -852.75)" data-name="Forma 1"/>
</svg>
