<svg width="96.062" xmlns="http://www.w3.org/2000/svg" viewBox="0 0 96.062 13.875" height="13.875">
 <metadata>
  <x:xmpmeta x:xmptk="Adobe XMP Core 5.6-c138 79.159824, 2016/09/14-01:09:01        " xmlns:x="adobe:ns:meta/">
   <rdf:RDF xmlns:rdf="http://www.w3.org/1999/02/22-rdf-syntax-ns#">
    <rdf:Description rdf:about=""/>
   </rdf:RDF>
  </x:xmpmeta>
 </metadata>
 <defs>
  <style>.cls-1 {
        fill: #e79a2c;
        fill-rule: evenodd;
      }</style>
 </defs>
 <path id="Forma_1_copy_7" d="m799.49 31.172a0.51 0.51 0 0 0 0.157 -0.562 0.544 0.544 0 0 0 -0.478 -0.358l-4.382-0.314a0.546 0.546 0 0 1 -0.461 -0.317l-1.741-3.882a0.556 0.556 0 0 0 -1.008 0.009l-1.666 3.913a0.542 0.542 0 0 1 -0.455 0.324l-4.376 0.392a0.544 0.544 0 0 0 -0.471 0.365 0.517 0.517 0 0 0 0.169 0.56l3.353 2.732a0.518 0.518 0 0 1 0.18 0.517l-0.964 4.124a0.517 0.517 0 0 0 0.216 0.544 0.567 0.567 0 0 0 0.606 0.018l3.737-2.223a0.567 0.567 0 0 1 0.567 0l3.78 2.157a0.566 0.566 0 0 0 0.6 -0.03 0.513 0.513 0 0 0 0.205 -0.547l-1.042-4.106a0.511 0.511 0 0 1 0.17 -0.52zm20.651 0a0.513 0.513 0 0 0 0.158 -0.562 0.545 0.545 0 0 0 -0.478 -0.358l-4.382-0.314a0.548 0.548 0 0 1 -0.462 -0.317l-1.74-3.882a0.557 0.557 0 0 0 -1.009 0.009l-1.665 3.913a0.545 0.545 0 0 1 -0.456 0.324l-4.375 0.392a0.543 0.543 0 0 0 -0.471 0.365 0.516 0.516 0 0 0 0.168 0.56l3.353 2.732a0.514 0.514 0 0 1 0.18 0.517l-0.964 4.124a0.516 0.516 0 0 0 0.217 0.544 0.565 0.565 0 0 0 0.605 0.018l3.737-2.223a0.569 0.569 0 0 1 0.568 0l3.779 2.157a0.566 0.566 0 0 0 0.6 -0.03 0.514 0.514 0 0 0 0.206 -0.547l-1.042-4.106a0.51 0.51 0 0 1 0.169 -0.52zm19.858 0a0.514 0.514 0 0 0 0.157 -0.562 0.544 0.544 0 0 0 -0.478 -0.358l-4.382-0.314a0.546 0.546 0 0 1 -0.461 -0.317l-1.75-3.881a0.556 0.556 0 0 0 -1.008 0.009l-1.666 3.913a0.542 0.542 0 0 1 -0.455 0.324l-4.376 0.392a0.543 0.543 0 0 0 -0.471 0.365 0.515 0.515 0 0 0 0.169 0.56l3.352 2.732a0.516 0.516 0 0 1 0.181 0.517l-0.964 4.124a0.514 0.514 0 0 0 0.216 0.544 0.567 0.567 0 0 0 0.606 0.018l3.737-2.223a0.567 0.567 0 0 1 0.567 0l3.779 2.157a0.567 0.567 0 0 0 0.605 -0.03 0.513 0.513 0 0 0 0.205 -0.547l-1.042-4.106a0.511 0.511 0 0 1 0.17 -0.52zm20.651 0a0.513 0.513 0 0 0 0.158 -0.562 0.545 0.545 0 0 0 -0.478 -0.358l-4.382-0.314a0.547 0.547 0 0 1 -0.462 -0.317l-1.74-3.882a0.557 0.557 0 0 0 -1.009 0.009l-1.665 3.913a0.545 0.545 0 0 1 -0.456 0.324l-4.375 0.392a0.543 0.543 0 0 0 -0.471 0.365 0.515 0.515 0 0 0 0.168 0.56l3.353 2.732a0.516 0.516 0 0 1 0.18 0.517l-0.97 4.125a0.516 0.516 0 0 0 0.217 0.544 0.565 0.565 0 0 0 0.605 0.018l3.737-2.223a0.569 0.569 0 0 1 0.568 0l3.779 2.157a0.566 0.566 0 0 0 0.6 -0.03 0.514 0.514 0 0 0 0.206 -0.547l-1.043-4.106a0.513 0.513 0 0 1 0.17 -0.52zm19.858 0a0.514 0.514 0 0 0 0.157 -0.562 0.544 0.544 0 0 0 -0.478 -0.358l-4.382-0.314a0.548 0.548 0 0 1 -0.462 -0.317l-1.75-3.881a0.557 0.557 0 0 0 -1.009 0.009l-1.665 3.913a0.544 0.544 0 0 1 -0.455 0.324l-4.376 0.392a0.543 0.543 0 0 0 -0.471 0.365 0.516 0.516 0 0 0 0.168 0.56l3.353 2.732a0.516 0.516 0 0 1 0.181 0.517l-0.964 4.124a0.514 0.514 0 0 0 0.216 0.544 0.567 0.567 0 0 0 0.606 0.018l3.737-2.223a0.567 0.567 0 0 1 0.567 0l3.779 2.157a0.568 0.568 0 0 0 0.605 -0.03 0.515 0.515 0 0 0 0.205 -0.547l-1.042-4.106a0.511 0.511 0 0 1 0.17 -0.52z" class="cls-1" transform="translate(-784.59 -25.438)" data-name="Forma 1 copy 7"/>
</svg>
